<svg xmlns="http://www.w3.org/2000/svg" xmlns:xlink="http://www.w3.org/1999/xlink" width="17" height="13"
     viewBox="0 0 17 13">
    <g transform="translate(-505 -24)">
        <path d="M518.8 31.29v4.73c0 .17-.06.32-.19.44a.58.58 0 0 1-.45.19h-3.83v-3.79h-2.56v3.79h-3.83a.58.58 0 0 1-.45-.19.58.58 0 0 1-.19-.44v-4.76l.01-.03 5.74-4.68 5.74 4.68.01.06zm2.23-.68l-.62.73a.35.35 0 0 1-.21.1h-.03a.33.33 0 0 1-.21-.06l-6.91-5.69-6.91 5.69a.36.36 0 0 1-.24.06.35.35 0 0 1-.21-.1l-.62-.73a.34.34 0 0 1-.07-.24.3.3 0 0 1 .11-.21l7.18-5.9c.21-.17.47-.26.76-.26.29 0 .55.09.76.26l2.44 2.01v-1.92c0-.1.03-.17.09-.23a.3.3 0 0 1 .23-.09h1.91c.1 0 .17.03.23.09a.3.3 0 0 1 .09.23v4.02l2.19 1.79c.07.05.1.13.11.21a.34.34 0 0 1-.07.24z"/>
    </g>
</svg>
