<svg xmlns="http://www.w3.org/2000/svg" width="19" height="24" viewBox="0 0 19 24">
  <defs>
    <linearGradient id="q1jla" x1="0" x2="19" y1="12" y2="12" gradientUnits="userSpaceOnUse">
      <stop offset="0" stop-color="#4fa968"/>
      <stop offset=".99" stop-color="#2ea8cb"/>
      <stop offset="1" stop-color="#2ea8cb"/>
    </linearGradient>
  </defs>
  <g>
    <g>
      <path fill="url(#q1jla)"
            d="M14 23.999H5c-2.757 0-5-2.244-5-5v-7a5.003 5.003 0 0 1 3-4.576v-.924c0-3.584 2.916-6.5 6.5-6.5s6.5 2.916 6.5 6.5v.924c1.763.773 3 2.53 3 4.576v7c0 2.756-2.243 5-5 5zm0-17.5c0-2.482-2.019-4.5-4.5-4.5a4.505 4.505 0 0 0-4.5 4.5v.5h9zm3 5.5c0-1.654-1.346-3-3-3H5c-1.654 0-3 1.346-3 3v7c0 1.654 1.346 3 3 3h9c1.654 0 3-1.346 3-3zm-7.5 1A2.5 2.5 0 1 1 9.5 18a2.5 2.5 0 0 1 0-5zM9 15.5a.5.5 0 1 0 1 .001.5.5 0 0 0-1 0z"/>
    </g>
  </g>
</svg>
