<?xml version="1.0" encoding="utf-8"?>
<!-- Generator: Adobe Illustrator 21.0.0, SVG Export Plug-In . SVG Version: 6.00 Build 0)  -->
<svg version="1.1" id="Layer_1" xmlns="http://www.w3.org/2000/svg" xmlns:xlink="http://www.w3.org/1999/xlink" x="0px" y="0px"
	 viewBox="0 0 209 44" style="enable-background:new 0 0 209 44;" xml:space="preserve">
<style type="text/css">
	.st0{fill:#43966A;}
	.st1{fill:#FFFFFF;}
	.st2{clip-path:url(#SVGID_13_);}
	.st3{clip-path:url(#SVGID_26_);}
	.st4{clip-path:url(#SVGID_27_);}
	.st5{clip-path:url(#SVGID_33_);}
	.st6{clip-path:url(#SVGID_34_);}
	.st7{clip-path:url(#SVGID_35_);}
	.st8{clip-path:url(#SVGID_47_);}
	.st9{clip-path:url(#SVGID_48_);}
	.st10{clip-path:url(#SVGID_49_);}
	.st11{clip-path:url(#SVGID_50_);}
	.st12{clip-path:url(#SVGID_58_);}
	.st13{clip-path:url(#SVGID_59_);}
	.st14{clip-path:url(#SVGID_60_);}
	.st15{clip-path:url(#SVGID_61_);}
	.st16{clip-path:url(#SVGID_62_);}
	.st17{clip-path:url(#SVGID_71_);}
	.st18{clip-path:url(#SVGID_72_);}
	.st19{clip-path:url(#SVGID_73_);}
	.st20{clip-path:url(#SVGID_74_);}
	.st21{clip-path:url(#SVGID_75_);}
	.st22{clip-path:url(#SVGID_76_);}
	.st23{fill:#60B860;}
	.st24{fill:url(#SVGID_78_);}
	.st25{fill:url(#SVGID_79_);}
	.st26{fill:url(#SVGID_80_);}
	.st27{fill:url(#SVGID_81_);}
	.st28{clip-path:url(#SVGID_86_);}
	.st29{clip-path:url(#SVGID_91_);}
	.st30{clip-path:url(#SVGID_92_);}
	.st31{clip-path:url(#SVGID_98_);}
	.st32{clip-path:url(#SVGID_99_);}
	.st33{clip-path:url(#SVGID_100_);}
	.st34{clip-path:url(#SVGID_107_);}
	.st35{clip-path:url(#SVGID_108_);}
	.st36{clip-path:url(#SVGID_109_);}
	.st37{clip-path:url(#SVGID_110_);}
	.st38{clip-path:url(#SVGID_118_);}
	.st39{clip-path:url(#SVGID_119_);}
	.st40{clip-path:url(#SVGID_120_);}
	.st41{clip-path:url(#SVGID_121_);}
	.st42{clip-path:url(#SVGID_122_);}
	.st43{fill:#103B47;}
	.st44{clip-path:url(#SVGID_128_);}
	.st45{clip-path:url(#SVGID_133_);}
	.st46{clip-path:url(#SVGID_134_);}
	.st47{clip-path:url(#SVGID_140_);}
	.st48{clip-path:url(#SVGID_141_);}
	.st49{clip-path:url(#SVGID_142_);}
</style>
<g>
	<g>
		<g>
			<path id="SVGID_1_" class="st0" d="M24,44C11.9,44,2,34.1,2,22c0-5,1.6-9.7,4.7-13.6c2.6-3.2,5.9-5.7,9.8-7.1
				C18.9,0.4,21.4,0,24,0c5,0,9.7,1.6,13.6,4.7c2.5,2,4.6,4.6,6.1,7.5c1.5,3.1,2.3,6.4,2.3,9.8C46,34.1,36.1,44,24,44L24,44z"/>
		</g>
		<g>
			<path id="SVGID_2_" class="st1" d="M40.1,14c-1.2-2.4-2.9-4.5-5-6.1C32,5.3,28.1,4,24,4c-2.1,0-4.2,0.4-6.1,1.1
				c-3.2,1.1-5.9,3.2-8,5.8C7.3,14.1,6,17.9,6,22c0,9.9,8.1,18,18,18s18-8.1,18-18C42,19.2,41.4,16.5,40.1,14L40.1,14z"/>
		</g>
		<g>
			<path id="SVGID_3_" class="st0" d="M44.6,17.9c-1.2,4.3-3.7,8.1-7.6,10.5c-1,0.6-2.1,1-3.2,1.4c-3.2,1.1-6.7,1.6-9.5,3.2
				c-0.2,0.1-0.4,0.2-0.5,0.2c-1.9,0.3-0.5-6.3,4.2-9.7c1-0.7,2-1.4,3-2c0.2-0.1,0.1-0.4-0.1-0.4c0,0,0,0-0.1,0
				c-0.9,0.4-1.8,0.8-2.6,1.3c-3.2,1.7-5.7,4.1-6.7,7.7l-1.8,5.2c-0.6-3.5-0.6-7.2,0.1-10.7c0.4-1.9,0.9-3.8,1.8-5.5
				c0.6-1.1,1.3-2.1,2.2-2.9c1-0.9,2-1.7,3.1-2.3c0.4-0.2,0.8-0.4,1.2-0.6c1.8-0.8,3.7-1.4,5.7-1.9c4-1,8.1-1.8,11.5-4.3
				C45.3,7,45.4,7,45.4,7c0.4,0,0.7,0.3,0.6,0.7C45.5,11,45.5,14.6,44.6,17.9L44.6,17.9z"/>
		</g>
		<g>
			<path id="SVGID_4_" class="st0" d="M21.7,25.6c-0.2,1.2-0.4,2.4-0.8,3.6c-0.1,0.2-0.2,0.6-0.4,0.7c-0.3,0.2-0.7-0.1-0.6-0.5
				c1.1-2.5,1-5.6,0.4-8.2c-0.8-3-2.9-5-5.5-6.4c-0.7-0.4-1.4-0.7-2.2-1.1l0,0c-0.2,0-0.3,0.2-0.1,0.3c0.9,0.5,1.7,1.1,2.5,1.7
				c3.9,2.8,5,8.3,3.5,8.1c-0.1,0-0.3-0.1-0.4-0.2c-2.3-1.4-5.2-1.8-7.8-2.7c-0.9-0.3-1.8-0.7-2.6-1.2c-3.2-1.9-5.3-5.1-6.3-8.7
				C0.5,8.4,0.5,5.3,0,2.6C-0.1,2.2,0.2,2,0.5,2c0.1,0,0.1,0,0.2,0.1c2.7,2.1,6.1,2.7,9.4,3.6c1.6,0.4,3.2,0.9,4.7,1.6
				c0.3,0.1,0.6,0.3,0.9,0.5c0.9,0.5,1.8,1.1,2.6,1.9c0.7,0.7,1.3,1.6,1.8,2.4c0.7,1.4,1.2,3,1.5,4.6C22.1,19.7,22.2,22.7,21.7,25.6
				L21.7,25.6z"/>
		</g>
		<g>
			<path id="SVGID_5_" class="st0" d="M44.6,21.9c-1.2,4.3-3.7,8.1-7.6,10.5c-1,0.6-2.1,1-3.2,1.4c-1.5,0.5-3.1,0.9-4.7,1.3
				c-0.1,0-0.2,0.1-0.3,0.1c-6.1,1.9-5.9,6.1-5.9,6.1l-1.5,0.3c0.2,0.5,0.3,1,0.6,1.5c0.2,0.4-0.3,0.8-0.7,0.6
				c-0.3-0.2-0.4-0.6-0.5-0.9c-0.6-1.1-0.8-1.8-1-2.8c0,4.3-0.3,5.4-2.1-8.9c-0.5-4.5-5.4-5.6-5.4-5.6l0,0c-0.8-0.2-1.5-0.4-2.3-0.7
				c-0.9-0.3-1.8-0.7-2.6-1.2c-3.2-1.9-5.3-5.1-6.3-8.7c-0.7-2.7-0.3-6.4-0.8-9.1c0.1-0.2,0.3-0.5,0.6-0.4c0.1,0,0.1,0,0.2,0.1
				c2.7,2.1,5.7,3.4,9,4.2c1.6,0.4,3.2,0.9,4.7,1.6c0.3,0.1,0.6,0.3,0.9,0.5c0.9,0.5,1.8,1.1,2.6,1.9c0.7,0.7,1.3,1.6,1.8,2.4
				c0.7,1.4,1.2,3,1.5,4.6c0.1,0.6,0.2,1.3,0.3,1.9c0.5-0.9,1.1-1.7,1.9-2.5c1-0.9,2-1.7,3.1-2.3c0.4-0.2,0.8-0.4,1.2-0.6
				c1.8-0.8,3.7-1.4,5.7-1.9c4-1,6.9-1.8,10.2-4.2c0.1-0.1,0.2-0.1,0.3-0.1c0.4,0,0.7,0.3,0.6,0.7C44.2,15,45.5,18.6,44.6,21.9
				L44.6,21.9z"/>
		</g>
		<g>
			<path id="SVGID_6_" class="st0" d="M14.7,18.8c-0.7-0.4-1.4-0.7-2.2-1.1l0,0c-0.2,0-0.3,0.2-0.1,0.3c0.9,0.5,1.7,1.1,2.5,1.7
				l0.1,0.1l0.8-0.3C15.4,19.3,15.1,19.1,14.7,18.8L14.7,18.8z"/>
		</g>
		<g>
			<path id="SVGID_7_" class="st0" d="M19.4,29c0,0,0,0.8,0.1,1.9c0.1-0.8,0.2-1.5,0.3-2.2c0-0.1,0-0.1,0-0.2
				C19.6,28.8,19.4,29,19.4,29L19.4,29z"/>
		</g>
		<g>
			<path id="SVGID_8_" class="st0" d="M30.9,25.1L30.9,25.1c-1,0.4-1.8,0.8-2.7,1.3c-0.4,0.2-0.8,0.5-1.2,0.7c0.2,0,0.3,0.1,0.5,0.1
				c0.3,0.1,0.5,0.1,0.6,0.2c0.9-0.7,1.9-1.3,2.9-1.9C31.2,25.3,31.1,25.1,30.9,25.1L30.9,25.1z"/>
		</g>
		<g>
			<defs>
				<path id="SVGID_9_" d="M24,44C11.9,44,2,34.1,2,22c0-5,1.6-9.7,4.7-13.6c2.6-3.2,5.9-5.7,9.8-7.1C18.9,0.4,21.4,0,24,0
					c5,0,9.7,1.6,13.6,4.7c2.5,2,4.6,4.6,6.1,7.5c1.5,3.1,2.3,6.4,2.3,9.8C46,34.1,36.1,44,24,44L24,44z"/>
			</defs>
			<clipPath id="SVGID_10_">
				<use xlink:href="#SVGID_9_"  style="overflow:visible;"/>
			</clipPath>
		</g>
		<g>
			<defs>
				<path id="SVGID_11_" d="M24,44C11.9,44,2,34.1,2,22c0-5,1.6-9.7,4.7-13.6c2.6-3.2,5.9-5.7,9.8-7.1C18.9,0.4,21.4,0,24,0
					c5,0,9.7,1.6,13.6,4.7c2.5,2,4.6,4.6,6.1,7.5c1.5,3.1,2.3,6.4,2.3,9.8C46,34.1,36.1,44,24,44L24,44z"/>
			</defs>
			<defs>
				<path id="SVGID_12_" d="M40.1,14c-1.2-2.4-2.9-4.5-5-6.1C32,5.3,28.1,4,24,4c-2.1,0-4.2,0.4-6.1,1.1c-3.2,1.1-5.9,3.2-8,5.8
					C7.3,14.1,6,17.9,6,22c0,9.9,8.1,18,18,18s18-8.1,18-18C42,19.2,41.4,16.5,40.1,14L40.1,14z"/>
			</defs>
			<clipPath id="SVGID_13_">
				<use xlink:href="#SVGID_11_"  style="overflow:visible;"/>
			</clipPath>
			<clipPath id="SVGID_14_" class="st2">
				<use xlink:href="#SVGID_12_"  style="overflow:visible;"/>
			</clipPath>
		</g>
		<g>
			<defs>
				<path id="SVGID_15_" d="M24,44C11.9,44,2,34.1,2,22c0-5,1.6-9.7,4.7-13.6c2.6-3.2,5.9-5.7,9.8-7.1C18.9,0.4,21.4,0,24,0
					c5,0,9.7,1.6,13.6,4.7c2.5,2,4.6,4.6,6.1,7.5c1.5,3.1,2.3,6.4,2.3,9.8C46,34.1,36.1,44,24,44L24,44z"/>
			</defs>
			<defs>
				<path id="SVGID_16_" d="M40.1,14c-1.2-2.4-2.9-4.5-5-6.1C32,5.3,28.1,4,24,4c-2.1,0-4.2,0.4-6.1,1.1c-3.2,1.1-5.9,3.2-8,5.8
					C7.3,14.1,6,17.9,6,22c0,9.9,8.1,18,18,18s18-8.1,18-18C42,19.2,41.4,16.5,40.1,14L40.1,14z"/>
			</defs>
			<defs>
				<path id="SVGID_18_" d="M44.6,17.9c-1.2,4.3-3.7,8.1-7.6,10.5c-1,0.6-2.1,1-3.2,1.4c-3.2,1.1-6.7,1.6-9.5,3.2
					c-0.2,0.1-0.4,0.2-0.5,0.2c-1.9,0.3-0.5-6.3,4.2-9.7c1-0.7,2-1.4,3-2c0.2-0.1,0.1-0.4-0.1-0.4c0,0,0,0-0.1,0
					c-0.9,0.4-1.8,0.8-2.6,1.3c-3.2,1.7-5.7,4.1-6.7,7.7l-1.8,5.2c-0.6-3.5-0.6-7.2,0.1-10.7c0.4-1.9,0.9-3.8,1.8-5.5
					c0.6-1.1,1.3-2.1,2.2-2.9c1-0.9,2-1.7,3.1-2.3c0.4-0.2,0.8-0.4,1.2-0.6c1.8-0.8,3.7-1.4,5.7-1.9c4-1,8.1-1.8,11.5-4.3
					C45.3,7,45.4,7,45.4,7c0.4,0,0.7,0.3,0.6,0.7C45.5,11,45.5,14.6,44.6,17.9L44.6,17.9z"/>
			</defs>
			<clipPath id="SVGID_26_">
				<use xlink:href="#SVGID_15_"  style="overflow:visible;"/>
			</clipPath>
			<clipPath id="SVGID_27_" class="st3">
				<use xlink:href="#SVGID_16_"  style="overflow:visible;"/>
			</clipPath>
			<clipPath id="SVGID_28_" class="st4">
				<use xlink:href="#SVGID_18_"  style="overflow:visible;"/>
			</clipPath>
		</g>
		<g>
			<defs>
				<path id="SVGID_29_" d="M24,44C11.9,44,2,34.1,2,22c0-5,1.6-9.7,4.7-13.6c2.6-3.2,5.9-5.7,9.8-7.1C18.9,0.4,21.4,0,24,0
					c5,0,9.7,1.6,13.6,4.7c2.5,2,4.6,4.6,6.1,7.5c1.5,3.1,2.3,6.4,2.3,9.8C46,34.1,36.1,44,24,44L24,44z"/>
			</defs>
			<defs>
				<path id="SVGID_30_" d="M40.1,14c-1.2-2.4-2.9-4.5-5-6.1C32,5.3,28.1,4,24,4c-2.1,0-4.2,0.4-6.1,1.1c-3.2,1.1-5.9,3.2-8,5.8
					C7.3,14.1,6,17.9,6,22c0,9.9,8.1,18,18,18s18-8.1,18-18C42,19.2,41.4,16.5,40.1,14L40.1,14z"/>
			</defs>
			<defs>
				<path id="SVGID_31_" d="M44.6,17.9c-1.2,4.3-3.7,8.1-7.6,10.5c-1,0.6-2.1,1-3.2,1.4c-3.2,1.1-6.7,1.6-9.5,3.2
					c-0.2,0.1-0.4,0.2-0.5,0.2c-1.9,0.3-0.5-6.3,4.2-9.7c1-0.7,2-1.4,3-2c0.2-0.1,0.1-0.4-0.1-0.4c0,0,0,0-0.1,0
					c-0.9,0.4-1.8,0.8-2.6,1.3c-3.2,1.7-5.7,4.1-6.7,7.7l-1.8,5.2c-0.6-3.5-0.6-7.2,0.1-10.7c0.4-1.9,0.9-3.8,1.8-5.5
					c0.6-1.1,1.3-2.1,2.2-2.9c1-0.9,2-1.7,3.1-2.3c0.4-0.2,0.8-0.4,1.2-0.6c1.8-0.8,3.7-1.4,5.7-1.9c4-1,8.1-1.8,11.5-4.3
					C45.3,7,45.4,7,45.4,7c0.4,0,0.7,0.3,0.6,0.7C45.5,11,45.5,14.6,44.6,17.9L44.6,17.9z"/>
			</defs>
			<defs>
				<path id="SVGID_32_" d="M21.7,25.6c-0.2,1.2-0.4,2.4-0.8,3.6c-0.1,0.2-0.2,0.6-0.4,0.7c-0.3,0.2-0.7-0.1-0.6-0.5
					c1.1-2.5,1-5.6,0.4-8.2c-0.8-3-2.9-5-5.5-6.4c-0.7-0.4-1.4-0.7-2.2-1.1l0,0c-0.2,0-0.3,0.2-0.1,0.3c0.9,0.5,1.7,1.1,2.5,1.7
					c3.9,2.8,5,8.3,3.5,8.1c-0.1,0-0.3-0.1-0.4-0.2c-2.3-1.4-5.2-1.8-7.8-2.7c-0.9-0.3-1.8-0.7-2.6-1.2c-3.2-1.9-5.3-5.1-6.3-8.7
					C0.5,8.4,0.5,5.3,0,2.6C-0.1,2.2,0.2,2,0.5,2c0.1,0,0.1,0,0.2,0.1c2.7,2.1,6.1,2.7,9.4,3.6c1.6,0.4,3.2,0.9,4.7,1.6
					c0.3,0.1,0.6,0.3,0.9,0.5c0.9,0.5,1.8,1.1,2.6,1.9c0.7,0.7,1.3,1.6,1.8,2.4c0.7,1.4,1.2,3,1.5,4.6
					C22.1,19.7,22.2,22.7,21.7,25.6L21.7,25.6z"/>
			</defs>
			<clipPath id="SVGID_33_">
				<use xlink:href="#SVGID_29_"  style="overflow:visible;"/>
			</clipPath>
			<clipPath id="SVGID_34_" class="st5">
				<use xlink:href="#SVGID_30_"  style="overflow:visible;"/>
			</clipPath>
			<clipPath id="SVGID_35_" class="st6">
				<use xlink:href="#SVGID_31_"  style="overflow:visible;"/>
			</clipPath>
			<clipPath id="SVGID_36_" class="st7">
				<use xlink:href="#SVGID_32_"  style="overflow:visible;"/>
			</clipPath>
		</g>
		<g>
			<defs>
				<path id="SVGID_37_" d="M24,44C11.9,44,2,34.1,2,22c0-5,1.6-9.7,4.7-13.6c2.6-3.2,5.9-5.7,9.8-7.1C18.9,0.4,21.4,0,24,0
					c5,0,9.7,1.6,13.6,4.7c2.5,2,4.6,4.6,6.1,7.5c1.5,3.1,2.3,6.4,2.3,9.8C46,34.1,36.1,44,24,44L24,44z"/>
			</defs>
			<defs>
				<path id="SVGID_38_" d="M40.1,14c-1.2-2.4-2.9-4.5-5-6.1C32,5.3,28.1,4,24,4c-2.1,0-4.2,0.4-6.1,1.1c-3.2,1.1-5.9,3.2-8,5.8
					C7.3,14.1,6,17.9,6,22c0,9.9,8.1,18,18,18s18-8.1,18-18C42,19.2,41.4,16.5,40.1,14L40.1,14z"/>
			</defs>
			<defs>
				<path id="SVGID_39_" d="M44.6,17.9c-1.2,4.3-3.7,8.1-7.6,10.5c-1,0.6-2.1,1-3.2,1.4c-3.2,1.1-6.7,1.6-9.5,3.2
					c-0.2,0.1-0.4,0.2-0.5,0.2c-1.9,0.3-0.5-6.3,4.2-9.7c1-0.7,2-1.4,3-2c0.2-0.1,0.1-0.4-0.1-0.4c0,0,0,0-0.1,0
					c-0.9,0.4-1.8,0.8-2.6,1.3c-3.2,1.7-5.7,4.1-6.7,7.7l-1.8,5.2c-0.6-3.5-0.6-7.2,0.1-10.7c0.4-1.9,0.9-3.8,1.8-5.5
					c0.6-1.1,1.3-2.1,2.2-2.9c1-0.9,2-1.7,3.1-2.3c0.4-0.2,0.8-0.4,1.2-0.6c1.8-0.8,3.7-1.4,5.7-1.9c4-1,8.1-1.8,11.5-4.3
					C45.3,7,45.4,7,45.4,7c0.4,0,0.7,0.3,0.6,0.7C45.5,11,45.5,14.6,44.6,17.9L44.6,17.9z"/>
			</defs>
			<defs>
				<path id="SVGID_45_" d="M21.7,25.6c-0.2,1.2-0.4,2.4-0.8,3.6c-0.1,0.2-0.2,0.6-0.4,0.7c-0.3,0.2-0.7-0.1-0.6-0.5
					c1.1-2.5,1-5.6,0.4-8.2c-0.8-3-2.9-5-5.5-6.4c-0.7-0.4-1.4-0.7-2.2-1.1l0,0c-0.2,0-0.3,0.2-0.1,0.3c0.9,0.5,1.7,1.1,2.5,1.7
					c3.9,2.8,5,8.3,3.5,8.1c-0.1,0-0.3-0.1-0.4-0.2c-2.3-1.4-5.2-1.8-7.8-2.7c-0.9-0.3-1.8-0.7-2.6-1.2c-3.2-1.9-5.3-5.1-6.3-8.7
					C0.5,8.4,0.5,5.3,0,2.6C-0.1,2.2,0.2,2,0.5,2c0.1,0,0.1,0,0.2,0.1c2.7,2.1,6.1,2.7,9.4,3.6c1.6,0.4,3.2,0.9,4.7,1.6
					c0.3,0.1,0.6,0.3,0.9,0.5c0.9,0.5,1.8,1.1,2.6,1.9c0.7,0.7,1.3,1.6,1.8,2.4c0.7,1.4,1.2,3,1.5,4.6
					C22.1,19.7,22.2,22.7,21.7,25.6L21.7,25.6z"/>
			</defs>
			<defs>
				<path id="SVGID_46_" d="M44.6,21.9c-1.2,4.3-3.7,8.1-7.6,10.5c-1,0.6-2.1,1-3.2,1.4c-1.5,0.5-3.1,0.9-4.7,1.3
					c-0.1,0-0.2,0.1-0.3,0.1c-6.1,1.9-5.9,6.1-5.9,6.1l-1.5,0.3c0.2,0.5,0.3,1,0.6,1.5c0.2,0.4-0.3,0.8-0.7,0.6
					c-0.3-0.2-0.4-0.6-0.5-0.9c-0.6-1.1-0.8-1.8-1-2.8c0,4.3-0.3,5.4-2.1-8.9c-0.5-4.5-5.4-5.6-5.4-5.6l0,0
					c-0.8-0.2-1.5-0.4-2.3-0.7c-0.9-0.3-1.8-0.7-2.6-1.2c-3.2-1.9-5.3-5.1-6.3-8.7c-0.7-2.7-0.3-6.4-0.8-9.1
					c0.1-0.2,0.3-0.5,0.6-0.4c0.1,0,0.1,0,0.2,0.1c2.7,2.1,5.7,3.4,9,4.2c1.6,0.4,3.2,0.9,4.7,1.6c0.3,0.1,0.6,0.3,0.9,0.5
					c0.9,0.5,1.8,1.1,2.6,1.9c0.7,0.7,1.3,1.6,1.8,2.4c0.7,1.4,1.2,3,1.5,4.6c0.1,0.6,0.2,1.3,0.3,1.9c0.5-0.9,1.1-1.7,1.9-2.5
					c1-0.9,2-1.7,3.1-2.3c0.4-0.2,0.8-0.4,1.2-0.6c1.8-0.8,3.7-1.4,5.7-1.9c4-1,6.9-1.8,10.2-4.2c0.1-0.1,0.2-0.1,0.3-0.1
					c0.4,0,0.7,0.3,0.6,0.7C44.2,15,45.5,18.6,44.6,21.9L44.6,21.9z"/>
			</defs>
			<clipPath id="SVGID_47_">
				<use xlink:href="#SVGID_37_"  style="overflow:visible;"/>
			</clipPath>
			<clipPath id="SVGID_48_" class="st8">
				<use xlink:href="#SVGID_38_"  style="overflow:visible;"/>
			</clipPath>
			<clipPath id="SVGID_49_" class="st9">
				<use xlink:href="#SVGID_39_"  style="overflow:visible;"/>
			</clipPath>
			<clipPath id="SVGID_50_" class="st10">
				<use xlink:href="#SVGID_45_"  style="overflow:visible;"/>
			</clipPath>
			<clipPath id="SVGID_51_" class="st11">
				<use xlink:href="#SVGID_46_"  style="overflow:visible;"/>
			</clipPath>
		</g>
		<g>
			<defs>
				<path id="SVGID_52_" d="M24,44C11.9,44,2,34.1,2,22c0-5,1.6-9.7,4.7-13.6c2.6-3.2,5.9-5.7,9.8-7.1C18.9,0.4,21.4,0,24,0
					c5,0,9.7,1.6,13.6,4.7c2.5,2,4.6,4.6,6.1,7.5c1.5,3.1,2.3,6.4,2.3,9.8C46,34.1,36.1,44,24,44L24,44z"/>
			</defs>
			<defs>
				<path id="SVGID_53_" d="M40.1,14c-1.2-2.4-2.9-4.5-5-6.1C32,5.3,28.1,4,24,4c-2.1,0-4.2,0.4-6.1,1.1c-3.2,1.1-5.9,3.2-8,5.8
					C7.3,14.1,6,17.9,6,22c0,9.9,8.1,18,18,18s18-8.1,18-18C42,19.2,41.4,16.5,40.1,14L40.1,14z"/>
			</defs>
			<defs>
				<path id="SVGID_54_" d="M44.6,17.9c-1.2,4.3-3.7,8.1-7.6,10.5c-1,0.6-2.1,1-3.2,1.4c-3.2,1.1-6.7,1.6-9.5,3.2
					c-0.2,0.1-0.4,0.2-0.5,0.2c-1.9,0.3-0.5-6.3,4.2-9.7c1-0.7,2-1.4,3-2c0.2-0.1,0.1-0.4-0.1-0.4c0,0,0,0-0.1,0
					c-0.9,0.4-1.8,0.8-2.6,1.3c-3.2,1.7-5.7,4.1-6.7,7.7l-1.8,5.2c-0.6-3.5-0.6-7.2,0.1-10.7c0.4-1.9,0.9-3.8,1.8-5.5
					c0.6-1.1,1.3-2.1,2.2-2.9c1-0.9,2-1.7,3.1-2.3c0.4-0.2,0.8-0.4,1.2-0.6c1.8-0.8,3.7-1.4,5.7-1.9c4-1,8.1-1.8,11.5-4.3
					C45.3,7,45.4,7,45.4,7c0.4,0,0.7,0.3,0.6,0.7C45.5,11,45.5,14.6,44.6,17.9L44.6,17.9z"/>
			</defs>
			<defs>
				<path id="SVGID_55_" d="M21.7,25.6c-0.2,1.2-0.4,2.4-0.8,3.6c-0.1,0.2-0.2,0.6-0.4,0.7c-0.3,0.2-0.7-0.1-0.6-0.5
					c1.1-2.5,1-5.6,0.4-8.2c-0.8-3-2.9-5-5.5-6.4c-0.7-0.4-1.4-0.7-2.2-1.1l0,0c-0.2,0-0.3,0.2-0.1,0.3c0.9,0.5,1.7,1.1,2.5,1.7
					c3.9,2.8,5,8.3,3.5,8.1c-0.1,0-0.3-0.1-0.4-0.2c-2.3-1.4-5.2-1.8-7.8-2.7c-0.9-0.3-1.8-0.7-2.6-1.2c-3.2-1.9-5.3-5.1-6.3-8.7
					C0.5,8.4,0.5,5.3,0,2.6C-0.1,2.2,0.2,2,0.5,2c0.1,0,0.1,0,0.2,0.1c2.7,2.1,6.1,2.7,9.4,3.6c1.6,0.4,3.2,0.9,4.7,1.6
					c0.3,0.1,0.6,0.3,0.9,0.5c0.9,0.5,1.8,1.1,2.6,1.9c0.7,0.7,1.3,1.6,1.8,2.4c0.7,1.4,1.2,3,1.5,4.6
					C22.1,19.7,22.2,22.7,21.7,25.6L21.7,25.6z"/>
			</defs>
			<defs>
				<path id="SVGID_56_" d="M44.6,21.9c-1.2,4.3-3.7,8.1-7.6,10.5c-1,0.6-2.1,1-3.2,1.4c-1.5,0.5-3.1,0.9-4.7,1.3
					c-0.1,0-0.2,0.1-0.3,0.1c-6.1,1.9-5.9,6.1-5.9,6.1l-1.5,0.3c0.2,0.5,0.3,1,0.6,1.5c0.2,0.4-0.3,0.8-0.7,0.6
					c-0.3-0.2-0.4-0.6-0.5-0.9c-0.6-1.1-0.8-1.8-1-2.8c0,4.3-0.3,5.4-2.1-8.9c-0.5-4.5-5.4-5.6-5.4-5.6l0,0
					c-0.8-0.2-1.5-0.4-2.3-0.7c-0.9-0.3-1.8-0.7-2.6-1.2c-3.2-1.9-5.3-5.1-6.3-8.7c-0.7-2.7-0.3-6.4-0.8-9.1
					c0.1-0.2,0.3-0.5,0.6-0.4c0.1,0,0.1,0,0.2,0.1c2.7,2.1,5.7,3.4,9,4.2c1.6,0.4,3.2,0.9,4.7,1.6c0.3,0.1,0.6,0.3,0.9,0.5
					c0.9,0.5,1.8,1.1,2.6,1.9c0.7,0.7,1.3,1.6,1.8,2.4c0.7,1.4,1.2,3,1.5,4.6c0.1,0.6,0.2,1.3,0.3,1.9c0.5-0.9,1.1-1.7,1.9-2.5
					c1-0.9,2-1.7,3.1-2.3c0.4-0.2,0.8-0.4,1.2-0.6c1.8-0.8,3.7-1.4,5.7-1.9c4-1,6.9-1.8,10.2-4.2c0.1-0.1,0.2-0.1,0.3-0.1
					c0.4,0,0.7,0.3,0.6,0.7C44.2,15,45.5,18.6,44.6,21.9L44.6,21.9z"/>
			</defs>
			<defs>
				<path id="SVGID_57_" d="M14.7,18.8c-0.7-0.4-1.4-0.7-2.2-1.1l0,0c-0.2,0-0.3,0.2-0.1,0.3c0.9,0.5,1.7,1.1,2.5,1.7l0.1,0.1
					l0.8-0.3C15.4,19.3,15.1,19.1,14.7,18.8L14.7,18.8z"/>
			</defs>
			<clipPath id="SVGID_58_">
				<use xlink:href="#SVGID_52_"  style="overflow:visible;"/>
			</clipPath>
			<clipPath id="SVGID_59_" class="st12">
				<use xlink:href="#SVGID_53_"  style="overflow:visible;"/>
			</clipPath>
			<clipPath id="SVGID_60_" class="st13">
				<use xlink:href="#SVGID_54_"  style="overflow:visible;"/>
			</clipPath>
			<clipPath id="SVGID_61_" class="st14">
				<use xlink:href="#SVGID_55_"  style="overflow:visible;"/>
			</clipPath>
			<clipPath id="SVGID_62_" class="st15">
				<use xlink:href="#SVGID_56_"  style="overflow:visible;"/>
			</clipPath>
			<clipPath id="SVGID_63_" class="st16">
				<use xlink:href="#SVGID_57_"  style="overflow:visible;"/>
			</clipPath>
		</g>
		<g>
			<defs>
				<path id="SVGID_64_" d="M24,44C11.9,44,2,34.1,2,22c0-5,1.6-9.7,4.7-13.6c2.6-3.2,5.9-5.7,9.8-7.1C18.9,0.4,21.4,0,24,0
					c5,0,9.7,1.6,13.6,4.7c2.5,2,4.6,4.6,6.1,7.5c1.5,3.1,2.3,6.4,2.3,9.8C46,34.1,36.1,44,24,44L24,44z"/>
			</defs>
			<defs>
				<path id="SVGID_65_" d="M40.1,14c-1.2-2.4-2.9-4.5-5-6.1C32,5.3,28.1,4,24,4c-2.1,0-4.2,0.4-6.1,1.1c-3.2,1.1-5.9,3.2-8,5.8
					C7.3,14.1,6,17.9,6,22c0,9.9,8.1,18,18,18s18-8.1,18-18C42,19.2,41.4,16.5,40.1,14L40.1,14z"/>
			</defs>
			<defs>
				<path id="SVGID_66_" d="M44.6,17.9c-1.2,4.3-3.7,8.1-7.6,10.5c-1,0.6-2.1,1-3.2,1.4c-3.2,1.1-6.7,1.6-9.5,3.2
					c-0.2,0.1-0.4,0.2-0.5,0.2c-1.9,0.3-0.5-6.3,4.2-9.7c1-0.7,2-1.4,3-2c0.2-0.1,0.1-0.4-0.1-0.4c0,0,0,0-0.1,0
					c-0.9,0.4-1.8,0.8-2.6,1.3c-3.2,1.7-5.7,4.1-6.7,7.7l-1.8,5.2c-0.6-3.5-0.6-7.2,0.1-10.7c0.4-1.9,0.9-3.8,1.8-5.5
					c0.6-1.1,1.3-2.1,2.2-2.9c1-0.9,2-1.7,3.1-2.3c0.4-0.2,0.8-0.4,1.2-0.6c1.8-0.8,3.7-1.4,5.7-1.9c4-1,8.1-1.8,11.5-4.3
					C45.3,7,45.4,7,45.4,7c0.4,0,0.7,0.3,0.6,0.7C45.5,11,45.5,14.6,44.6,17.9L44.6,17.9z"/>
			</defs>
			<defs>
				<path id="SVGID_67_" d="M21.7,25.6c-0.2,1.2-0.4,2.4-0.8,3.6c-0.1,0.2-0.2,0.6-0.4,0.7c-0.3,0.2-0.7-0.1-0.6-0.5
					c1.1-2.5,1-5.6,0.4-8.2c-0.8-3-2.9-5-5.5-6.4c-0.7-0.4-1.4-0.7-2.2-1.1l0,0c-0.2,0-0.3,0.2-0.1,0.3c0.9,0.5,1.7,1.1,2.5,1.7
					c3.9,2.8,5,8.3,3.5,8.1c-0.1,0-0.3-0.1-0.4-0.2c-2.3-1.4-5.2-1.8-7.8-2.7c-0.9-0.3-1.8-0.7-2.6-1.2c-3.2-1.9-5.3-5.1-6.3-8.7
					C0.5,8.4,0.5,5.3,0,2.6C-0.1,2.2,0.2,2,0.5,2c0.1,0,0.1,0,0.2,0.1c2.7,2.1,6.1,2.7,9.4,3.6c1.6,0.4,3.2,0.9,4.7,1.6
					c0.3,0.1,0.6,0.3,0.9,0.5c0.9,0.5,1.8,1.1,2.6,1.9c0.7,0.7,1.3,1.6,1.8,2.4c0.7,1.4,1.2,3,1.5,4.6
					C22.1,19.7,22.2,22.7,21.7,25.6L21.7,25.6z"/>
			</defs>
			<defs>
				<path id="SVGID_68_" d="M44.6,21.9c-1.2,4.3-3.7,8.1-7.6,10.5c-1,0.6-2.1,1-3.2,1.4c-1.5,0.5-3.1,0.9-4.7,1.3
					c-0.1,0-0.2,0.1-0.3,0.1c-6.1,1.9-5.9,6.1-5.9,6.1l-1.5,0.3c0.2,0.5,0.3,1,0.6,1.5c0.2,0.4-0.3,0.8-0.7,0.6
					c-0.3-0.2-0.4-0.6-0.5-0.9c-0.6-1.1-0.8-1.8-1-2.8c0,4.3-0.3,5.4-2.1-8.9c-0.5-4.5-5.4-5.6-5.4-5.6l0,0
					c-0.8-0.2-1.5-0.4-2.3-0.7c-0.9-0.3-1.8-0.7-2.6-1.2c-3.2-1.9-5.3-5.1-6.3-8.7c-0.7-2.7-0.3-6.4-0.8-9.1
					c0.1-0.2,0.3-0.5,0.6-0.4c0.1,0,0.1,0,0.2,0.1c2.7,2.1,5.7,3.4,9,4.2c1.6,0.4,3.2,0.9,4.7,1.6c0.3,0.1,0.6,0.3,0.9,0.5
					c0.9,0.5,1.8,1.1,2.6,1.9c0.7,0.7,1.3,1.6,1.8,2.4c0.7,1.4,1.2,3,1.5,4.6c0.1,0.6,0.2,1.3,0.3,1.9c0.5-0.9,1.1-1.7,1.9-2.5
					c1-0.9,2-1.7,3.1-2.3c0.4-0.2,0.8-0.4,1.2-0.6c1.8-0.8,3.7-1.4,5.7-1.9c4-1,6.9-1.8,10.2-4.2c0.1-0.1,0.2-0.1,0.3-0.1
					c0.4,0,0.7,0.3,0.6,0.7C44.2,15,45.5,18.6,44.6,21.9L44.6,21.9z"/>
			</defs>
			<defs>
				<path id="SVGID_69_" d="M14.7,18.8c-0.7-0.4-1.4-0.7-2.2-1.1l0,0c-0.2,0-0.3,0.2-0.1,0.3c0.9,0.5,1.7,1.1,2.5,1.7l0.1,0.1
					l0.8-0.3C15.4,19.3,15.1,19.1,14.7,18.8L14.7,18.8z"/>
			</defs>
			<defs>
				<path id="SVGID_70_" d="M19.4,29c0,0,0,0.8,0.1,1.9c0.1-0.8,0.2-1.5,0.3-2.2c0-0.1,0-0.1,0-0.2C19.6,28.8,19.4,29,19.4,29
					L19.4,29z"/>
			</defs>
			<clipPath id="SVGID_71_">
				<use xlink:href="#SVGID_64_"  style="overflow:visible;"/>
			</clipPath>
			<clipPath id="SVGID_72_" class="st17">
				<use xlink:href="#SVGID_65_"  style="overflow:visible;"/>
			</clipPath>
			<clipPath id="SVGID_73_" class="st18">
				<use xlink:href="#SVGID_66_"  style="overflow:visible;"/>
			</clipPath>
			<clipPath id="SVGID_74_" class="st19">
				<use xlink:href="#SVGID_67_"  style="overflow:visible;"/>
			</clipPath>
			<clipPath id="SVGID_75_" class="st20">
				<use xlink:href="#SVGID_68_"  style="overflow:visible;"/>
			</clipPath>
			<clipPath id="SVGID_76_" class="st21">
				<use xlink:href="#SVGID_69_"  style="overflow:visible;"/>
			</clipPath>
			<clipPath id="SVGID_77_" class="st22">
				<use xlink:href="#SVGID_70_"  style="overflow:visible;"/>
			</clipPath>
		</g>
	</g>
	<g>
		<g>
			<path id="SVGID_17_" class="st23" d="M46.1,7.4c-0.6,3.3-0.6,7-1.5,10.2c-1.2,4.3-3.7,8.1-7.6,10.5c-1,0.6-2.1,1-3.2,1.4
				c-3.2,1.1-6.7,1.6-9.5,3.2c-0.2,0.1-0.4,0.2-0.5,0.2c-1.9,0.3-0.5-6.3,4.2-9.7c1-0.7,2-1.4,3-2c0.2-0.1,0.1-0.4-0.1-0.4
				c0,0,0,0-0.1,0c-0.9,0.4-1.8,0.8-2.6,1.3c-3.2,1.7-5.7,4.1-6.7,7.7c-0.1,0.5-0.3,1.1-0.4,1.7c0,0.1,0,0.2-0.1,0.3
				c-0.4,2-1,2-1.4,1.3c-0.3-0.4-0.4-1.4-0.4-2.1c0-0.2,0-0.4,0-0.6l0,0l0,0c0-2,0.2-4,0.5-6c0.2-0.8,0.4-1.7,0.6-2.5
				c-0.1-0.3-0.1-0.6-0.2-0.9c-0.8-3-2.9-5-5.5-6.4c-0.7-0.4-1.4-0.7-2.2-1.1l0,0c-0.2,0-0.3,0.2-0.1,0.3c0.9,0.5,1.7,1.1,2.5,1.7
				c3.9,2.8,5,8.3,3.5,8.1c-0.1,0-0.3-0.1-0.4-0.2c-2.3-1.4-5.2-1.8-7.8-2.7c-0.9-0.3-1.8-0.7-2.6-1.2c-3.2-1.9-5.3-5.1-6.3-8.7
				C0.5,8.1,0.5,5.1,0,2.3C-0.1,2,0.2,1.7,0.5,1.8c0.1,0,0.1,0,0.2,0.1C3.4,4,6.8,4.6,10.1,5.5c1.6,0.4,3.2,0.9,4.7,1.6
				c0.3,0.1,0.6,0.3,0.9,0.5c0.9,0.5,1.8,1.1,2.6,1.9c0.7,0.7,1.3,1.6,1.8,2.5c0.7,1.4,1.2,3,1.5,4.6c0.1,0.6,0.2,1.3,0.3,1.9
				c0.5-0.9,1.1-1.7,1.9-2.5c1-0.9,2-1.7,3.1-2.3c0.4-0.2,0.8-0.4,1.2-0.6c1.8-0.8,3.7-1.4,5.7-1.9c4-1,8.1-1.9,11.5-4.3
				c0.1-0.1,0.2-0.1,0.3-0.1C45.8,6.7,46.1,7,46.1,7.4L46.1,7.4z"/>
		</g>
	</g>
	<g>
		<g>
			
				<linearGradient id="SVGID_78_" gradientUnits="userSpaceOnUse" x1="58.0211" y1="24.5" x2="140.6511" y2="24.5" gradientTransform="matrix(1 0 0 -1 0 46)">
				<stop  offset="0" style="stop-color:#4DA265"/>
				<stop  offset="1" style="stop-color:#2EA8CB"/>
			</linearGradient>
			<path id="SVGID_19_" class="st24" d="M77.1,17.4c-0.5,0-0.8-0.1-1.1-0.3s-0.9-0.7-1.9-1.7c-1.4-1.3-2.8-2-4.1-2
				c-0.6,0-1.2,0.2-1.6,0.5s-0.6,0.7-0.6,1.3c0,1,0.9,1.8,2.7,2.3c2.4,0.7,3.9,1.2,4.6,1.6c3,1.5,4.4,3.6,4.4,6.4c0,2.5-1,4.5-3,6.1
				c-2.1,1.6-4.7,2.4-8.1,2.4c-1.5,0-3-0.2-4.7-0.5c-1.6-0.4-2.8-0.8-3.6-1.3c-0.6-0.4-1.1-1.2-1.5-2.5s-0.7-2.5-0.7-3.7
				c0-0.6,0.1-1,0.3-1.3c0.3-0.4,0.7-0.6,1.1-0.6c0.4,0,0.9,0.2,1.3,0.7c0.2,0.3,0.8,1.1,1.7,2.5c0.4,0.7,1.1,1.2,2,1.6
				c0.9,0.4,1.9,0.7,2.9,0.7c0.9,0,1.5-0.2,2.1-0.5c0.5-0.3,0.8-0.7,0.8-1.2s-0.2-0.9-0.6-1.2c-0.4-0.3-1.1-0.7-2-1
				c-1.7-0.5-2.9-1-3.8-1.5c-0.9-0.4-1.7-1-2.4-1.7c-1.8-1.6-2.7-3.5-2.7-5.6c0-1,0.2-2,0.7-3s1.1-1.8,2-2.5c2-1.6,4.4-2.4,7.2-2.4
				c1.2,0,2.8,0.3,4.7,0.9c0.2,0.1,0.4,0.1,0.6,0.1c0.1,0,0.5-0.1,1-0.3c0.2-0.1,0.4-0.1,0.6-0.1c0.8,0,1.6,0.6,2.5,1.9
				c0.9,1.2,1.3,2.4,1.3,3.6c0,0.7-0.2,1.2-0.6,1.7C78.1,17.1,77.7,17.4,77.1,17.4L77.1,17.4z"/>
		</g>
		<g>
			
				<linearGradient id="SVGID_79_" gradientUnits="userSpaceOnUse" x1="58.0211" y1="20.9" x2="140.6511" y2="20.9" gradientTransform="matrix(1 0 0 -1 0 46)">
				<stop  offset="0" style="stop-color:#4DA265"/>
				<stop  offset="1" style="stop-color:#2EA8CB"/>
			</linearGradient>
			<path id="SVGID_20_" class="st25" d="M98.1,24.9c-0.3,0.5-0.7,0.7-1.2,0.7h-8.2c-0.4,0-0.5,0.2-0.5,0.5c0,0.8,0.4,1.5,1.2,2.2
				c0.8,0.7,1.7,1,2.6,1c0.6,0,1.2-0.1,1.8-0.3c0.7-0.2,1.2-0.5,1.7-0.8c0.4-0.3,0.7-0.4,0.9-0.4c0.3,0,0.6,0.2,0.9,0.6
				s0.4,0.8,0.4,1.2c0,0.8-0.5,1.7-1.6,2.4c-1.8,1.4-4,2.1-6.4,2.1s-4.5-0.7-6.1-2.1c-0.8-0.7-1.5-1.6-2-2.6c-0.7-1.3-1-2.7-1-4.2
				c0-2,0.6-3.7,1.8-5.3c1-1.4,2.3-2.4,3.9-3c1.2-0.5,2.5-0.8,3.8-0.8c2.2,0,4.1,0.6,5.6,1.9c0.8,0.6,1.4,1.4,1.9,2.3
				c0.5,1,0.8,1.9,0.8,2.9C98.6,23.8,98.4,24.4,98.1,24.9L98.1,24.9z"/>
		</g>
		<g>
			<path id="SVGID_21_" class="st1" d="M91.5,19.8c-0.4-0.4-0.8-0.6-1.4-0.6s-1.2,0.3-1.5,0.8s-0.5,1-0.5,1.5c0,0.4,0.1,0.6,0.3,0.7
				s0.5,0.2,0.9,0.2H91c0.7,0,1.1-0.3,1.1-1C92.1,20.7,91.9,20.2,91.5,19.8L91.5,19.8z"/>
		</g>
		<g>
			
				<linearGradient id="SVGID_80_" gradientUnits="userSpaceOnUse" x1="58.0211" y1="20.9" x2="140.6511" y2="20.9" gradientTransform="matrix(1 0 0 -1 0 46)">
				<stop  offset="0" style="stop-color:#4DA265"/>
				<stop  offset="1" style="stop-color:#2EA8CB"/>
			</linearGradient>
			<path id="SVGID_22_" class="st26" d="M117,24.9c-0.3,0.5-0.7,0.7-1.2,0.7h-8.2c-0.4,0-0.5,0.2-0.5,0.5c0,0.8,0.4,1.5,1.2,2.2
				c0.8,0.7,1.7,1,2.6,1c0.6,0,1.2-0.1,1.8-0.3c0.7-0.2,1.2-0.5,1.7-0.8c0.4-0.3,0.7-0.4,0.9-0.4c0.3,0,0.6,0.2,0.9,0.6
				s0.4,0.8,0.4,1.2c0,0.8-0.5,1.7-1.6,2.4c-1.8,1.4-4,2.1-6.4,2.1s-4.5-0.7-6.1-2.1c-0.8-0.7-1.5-1.6-2-2.6c-0.7-1.3-1-2.7-1-4.2
				c0-2,0.6-3.7,1.8-5.3c1-1.4,2.3-2.4,3.9-3c1.2-0.5,2.5-0.8,3.8-0.8c2.2,0,4.1,0.6,5.6,1.9c0.8,0.6,1.4,1.4,1.9,2.3
				c0.5,1,0.8,1.9,0.8,2.9C117.4,23.8,117.3,24.4,117,24.9L117,24.9z"/>
		</g>
		<g>
			<path id="SVGID_23_" class="st1" d="M110.4,19.8c-0.4-0.4-0.8-0.6-1.4-0.6s-1.2,0.3-1.5,0.8s-0.5,1-0.5,1.5
				c0,0.4,0.1,0.6,0.3,0.7c0.2,0.1,0.5,0.2,0.9,0.2h1.8c0.7,0,1.1-0.3,1.1-1C110.9,20.7,110.7,20.2,110.4,19.8L110.4,19.8z"/>
		</g>
		<g>
			
				<linearGradient id="SVGID_81_" gradientUnits="userSpaceOnUse" x1="58.0211" y1="24.3" x2="140.6511" y2="24.3" gradientTransform="matrix(1 0 0 -1 0 46)">
				<stop  offset="0" style="stop-color:#4DA265"/>
				<stop  offset="1" style="stop-color:#2EA8CB"/>
			</linearGradient>
			<path id="SVGID_24_" class="st27" d="M137.9,33.2c-1.7,0.4-3.4,0.7-5,0.7c-0.4,0-0.6-0.1-0.7-0.2c-0.1-0.1-0.2-0.4-0.2-0.8
				c-0.1-0.6-0.3-0.9-0.6-0.9c-0.2,0-0.5,0.2-0.9,0.5c-1.2,1-2.5,1.5-3.9,1.5c-1.8,0-3.4-0.7-4.8-2c-0.8-0.8-1.5-1.7-2-2.8
				c-0.7-1.4-1-2.8-1-4.2c0-1.7,0.5-3.2,1.4-4.8c0.8-1.4,2-2.5,3.4-3.3c1.2-0.6,2.4-1,3.6-1c1.3,0,2.5,0.3,3.6,0.9
				c0.2,0.1,0.3,0.1,0.4,0.1c0.4,0,0.6-0.5,0.6-1.5c0-0.4-0.1-0.8-0.3-1s-0.6-0.4-1.1-0.6c-0.7-0.2-1.1-0.6-1.1-1.2
				c0-0.9,0.8-1.5,2.5-2c3-0.8,4.9-1.2,6-1.2c1,0,1.5,0.5,1.5,1.4V27c0,0.9,0,1.5,0.1,1.8s0.3,0.5,0.6,0.8c0.4,0.3,0.7,0.6,0.8,0.8
				c0.1,0.2,0.2,0.5,0.2,0.8C140.7,32,139.7,32.7,137.9,33.2L137.9,33.2z"/>
		</g>
		<g>
			<path id="SVGID_25_" class="st1" d="M130.8,20.5c-0.3-0.5-0.8-0.7-1.4-0.7c-0.8,0-1.3,0.4-1.8,1.2c-0.6,1.1-0.9,2.5-0.9,4.3
				c0,1.6,0.3,2.8,0.9,3.6c0.4,0.6,1,0.9,1.6,0.9c0.8,0,1.3-0.4,1.6-1.3s0.5-2.3,0.5-4.3C131.4,22.3,131.2,21.1,130.8,20.5
				L130.8,20.5z"/>
		</g>
		<g>
			<defs>
				<path id="SVGID_82_" d="M77.1,17.4c-0.5,0-0.8-0.1-1.1-0.3s-0.9-0.7-1.9-1.7c-1.4-1.3-2.8-2-4.1-2c-0.6,0-1.2,0.2-1.6,0.5
					s-0.6,0.7-0.6,1.3c0,1,0.9,1.8,2.7,2.3c2.4,0.7,3.9,1.2,4.6,1.6c3,1.5,4.4,3.6,4.4,6.4c0,2.5-1,4.5-3,6.1
					c-2.1,1.6-4.7,2.4-8.1,2.4c-1.5,0-3-0.2-4.7-0.5c-1.6-0.4-2.8-0.8-3.6-1.3c-0.6-0.4-1.1-1.2-1.5-2.5s-0.7-2.5-0.7-3.7
					c0-0.6,0.1-1,0.3-1.3c0.3-0.4,0.7-0.6,1.1-0.6c0.4,0,0.9,0.2,1.3,0.7c0.2,0.3,0.8,1.1,1.7,2.5c0.4,0.7,1.1,1.2,2,1.6
					c0.9,0.4,1.9,0.7,2.9,0.7c0.9,0,1.5-0.2,2.1-0.5c0.5-0.3,0.8-0.7,0.8-1.2s-0.2-0.9-0.6-1.2c-0.4-0.3-1.1-0.7-2-1
					c-1.7-0.5-2.9-1-3.8-1.5c-0.9-0.4-1.7-1-2.4-1.7c-1.8-1.6-2.7-3.5-2.7-5.6c0-1,0.2-2,0.7-3s1.1-1.8,2-2.5c2-1.6,4.4-2.4,7.2-2.4
					c1.2,0,2.8,0.3,4.7,0.9c0.2,0.1,0.4,0.1,0.6,0.1c0.1,0,0.5-0.1,1-0.3c0.2-0.1,0.4-0.1,0.6-0.1c0.8,0,1.6,0.6,2.5,1.9
					c0.9,1.2,1.3,2.4,1.3,3.6c0,0.7-0.2,1.2-0.6,1.7C78.1,17.1,77.7,17.4,77.1,17.4L77.1,17.4z"/>
			</defs>
			<clipPath id="SVGID_83_">
				<use xlink:href="#SVGID_82_"  style="overflow:visible;"/>
			</clipPath>
		</g>
		<g>
			<defs>
				<path id="SVGID_84_" d="M77.1,17.4c-0.5,0-0.8-0.1-1.1-0.3s-0.9-0.7-1.9-1.7c-1.4-1.3-2.8-2-4.1-2c-0.6,0-1.2,0.2-1.6,0.5
					s-0.6,0.7-0.6,1.3c0,1,0.9,1.8,2.7,2.3c2.4,0.7,3.9,1.2,4.6,1.6c3,1.5,4.4,3.6,4.4,6.4c0,2.5-1,4.5-3,6.1
					c-2.1,1.6-4.7,2.4-8.1,2.4c-1.5,0-3-0.2-4.7-0.5c-1.6-0.4-2.8-0.8-3.6-1.3c-0.6-0.4-1.1-1.2-1.5-2.5s-0.7-2.5-0.7-3.7
					c0-0.6,0.1-1,0.3-1.3c0.3-0.4,0.7-0.6,1.1-0.6c0.4,0,0.9,0.2,1.3,0.7c0.2,0.3,0.8,1.1,1.7,2.5c0.4,0.7,1.1,1.2,2,1.6
					c0.9,0.4,1.9,0.7,2.9,0.7c0.9,0,1.5-0.2,2.1-0.5c0.5-0.3,0.8-0.7,0.8-1.2s-0.2-0.9-0.6-1.2c-0.4-0.3-1.1-0.7-2-1
					c-1.7-0.5-2.9-1-3.8-1.5c-0.9-0.4-1.7-1-2.4-1.7c-1.8-1.6-2.7-3.5-2.7-5.6c0-1,0.2-2,0.7-3s1.1-1.8,2-2.5c2-1.6,4.4-2.4,7.2-2.4
					c1.2,0,2.8,0.3,4.7,0.9c0.2,0.1,0.4,0.1,0.6,0.1c0.1,0,0.5-0.1,1-0.3c0.2-0.1,0.4-0.1,0.6-0.1c0.8,0,1.6,0.6,2.5,1.9
					c0.9,1.2,1.3,2.4,1.3,3.6c0,0.7-0.2,1.2-0.6,1.7C78.1,17.1,77.7,17.4,77.1,17.4L77.1,17.4z"/>
			</defs>
			<defs>
				<path id="SVGID_85_" d="M98.1,24.9c-0.3,0.5-0.7,0.7-1.2,0.7h-8.2c-0.4,0-0.5,0.2-0.5,0.5c0,0.8,0.4,1.5,1.2,2.2
					c0.8,0.7,1.7,1,2.6,1c0.6,0,1.2-0.1,1.8-0.3c0.7-0.2,1.2-0.5,1.7-0.8c0.4-0.3,0.7-0.4,0.9-0.4c0.3,0,0.6,0.2,0.9,0.6
					s0.4,0.8,0.4,1.2c0,0.8-0.5,1.7-1.6,2.4c-1.8,1.4-4,2.1-6.4,2.1s-4.5-0.7-6.1-2.1c-0.8-0.7-1.5-1.6-2-2.6c-0.7-1.3-1-2.7-1-4.2
					c0-2,0.6-3.7,1.8-5.3c1-1.4,2.3-2.4,3.9-3c1.2-0.5,2.5-0.8,3.8-0.8c2.2,0,4.1,0.6,5.6,1.9c0.8,0.6,1.4,1.4,1.9,2.3
					c0.5,1,0.8,1.9,0.8,2.9C98.6,23.8,98.4,24.4,98.1,24.9L98.1,24.9z"/>
			</defs>
			<clipPath id="SVGID_86_">
				<use xlink:href="#SVGID_84_"  style="overflow:visible;"/>
			</clipPath>
			<clipPath id="SVGID_87_" class="st28">
				<use xlink:href="#SVGID_85_"  style="overflow:visible;"/>
			</clipPath>
		</g>
		<g>
			<defs>
				<path id="SVGID_88_" d="M77.1,17.4c-0.5,0-0.8-0.1-1.1-0.3s-0.9-0.7-1.9-1.7c-1.4-1.3-2.8-2-4.1-2c-0.6,0-1.2,0.2-1.6,0.5
					s-0.6,0.7-0.6,1.3c0,1,0.9,1.8,2.7,2.3c2.4,0.7,3.9,1.2,4.6,1.6c3,1.5,4.4,3.6,4.4,6.4c0,2.5-1,4.5-3,6.1
					c-2.1,1.6-4.7,2.4-8.1,2.4c-1.5,0-3-0.2-4.7-0.5c-1.6-0.4-2.8-0.8-3.6-1.3c-0.6-0.4-1.1-1.2-1.5-2.5s-0.7-2.5-0.7-3.7
					c0-0.6,0.1-1,0.3-1.3c0.3-0.4,0.7-0.6,1.1-0.6c0.4,0,0.9,0.2,1.3,0.7c0.2,0.3,0.8,1.1,1.7,2.5c0.4,0.7,1.1,1.2,2,1.6
					c0.9,0.4,1.9,0.7,2.9,0.7c0.9,0,1.5-0.2,2.1-0.5c0.5-0.3,0.8-0.7,0.8-1.2s-0.2-0.9-0.6-1.2c-0.4-0.3-1.1-0.7-2-1
					c-1.7-0.5-2.9-1-3.8-1.5c-0.9-0.4-1.7-1-2.4-1.7c-1.8-1.6-2.7-3.5-2.7-5.6c0-1,0.2-2,0.7-3s1.1-1.8,2-2.5c2-1.6,4.4-2.4,7.2-2.4
					c1.2,0,2.8,0.3,4.7,0.9c0.2,0.1,0.4,0.1,0.6,0.1c0.1,0,0.5-0.1,1-0.3c0.2-0.1,0.4-0.1,0.6-0.1c0.8,0,1.6,0.6,2.5,1.9
					c0.9,1.2,1.3,2.4,1.3,3.6c0,0.7-0.2,1.2-0.6,1.7C78.1,17.1,77.7,17.4,77.1,17.4L77.1,17.4z"/>
			</defs>
			<defs>
				<path id="SVGID_89_" d="M98.1,24.9c-0.3,0.5-0.7,0.7-1.2,0.7h-8.2c-0.4,0-0.5,0.2-0.5,0.5c0,0.8,0.4,1.5,1.2,2.2
					c0.8,0.7,1.7,1,2.6,1c0.6,0,1.2-0.1,1.8-0.3c0.7-0.2,1.2-0.5,1.7-0.8c0.4-0.3,0.7-0.4,0.9-0.4c0.3,0,0.6,0.2,0.9,0.6
					s0.4,0.8,0.4,1.2c0,0.8-0.5,1.7-1.6,2.4c-1.8,1.4-4,2.1-6.4,2.1s-4.5-0.7-6.1-2.1c-0.8-0.7-1.5-1.6-2-2.6c-0.7-1.3-1-2.7-1-4.2
					c0-2,0.6-3.7,1.8-5.3c1-1.4,2.3-2.4,3.9-3c1.2-0.5,2.5-0.8,3.8-0.8c2.2,0,4.1,0.6,5.6,1.9c0.8,0.6,1.4,1.4,1.9,2.3
					c0.5,1,0.8,1.9,0.8,2.9C98.6,23.8,98.4,24.4,98.1,24.9L98.1,24.9z"/>
			</defs>
			<defs>
				<path id="SVGID_90_" d="M91.5,19.8c-0.4-0.4-0.8-0.6-1.4-0.6s-1.2,0.3-1.5,0.8s-0.5,1-0.5,1.5c0,0.4,0.1,0.6,0.3,0.7
					s0.5,0.2,0.9,0.2H91c0.7,0,1.1-0.3,1.1-1C92.1,20.7,91.9,20.2,91.5,19.8L91.5,19.8z"/>
			</defs>
			<clipPath id="SVGID_91_">
				<use xlink:href="#SVGID_88_"  style="overflow:visible;"/>
			</clipPath>
			<clipPath id="SVGID_92_" class="st29">
				<use xlink:href="#SVGID_89_"  style="overflow:visible;"/>
			</clipPath>
			<clipPath id="SVGID_93_" class="st30">
				<use xlink:href="#SVGID_90_"  style="overflow:visible;"/>
			</clipPath>
		</g>
		<g>
			<defs>
				<path id="SVGID_94_" d="M77.1,17.4c-0.5,0-0.8-0.1-1.1-0.3s-0.9-0.7-1.9-1.7c-1.4-1.3-2.8-2-4.1-2c-0.6,0-1.2,0.2-1.6,0.5
					s-0.6,0.7-0.6,1.3c0,1,0.9,1.8,2.7,2.3c2.4,0.7,3.9,1.2,4.6,1.6c3,1.5,4.4,3.6,4.4,6.4c0,2.5-1,4.5-3,6.1
					c-2.1,1.6-4.7,2.4-8.1,2.4c-1.5,0-3-0.2-4.7-0.5c-1.6-0.4-2.8-0.8-3.6-1.3c-0.6-0.4-1.1-1.2-1.5-2.5s-0.7-2.5-0.7-3.7
					c0-0.6,0.1-1,0.3-1.3c0.3-0.4,0.7-0.6,1.1-0.6c0.4,0,0.9,0.2,1.3,0.7c0.2,0.3,0.8,1.1,1.7,2.5c0.4,0.7,1.1,1.2,2,1.6
					c0.9,0.4,1.9,0.7,2.9,0.7c0.9,0,1.5-0.2,2.1-0.5c0.5-0.3,0.8-0.7,0.8-1.2s-0.2-0.9-0.6-1.2c-0.4-0.3-1.1-0.7-2-1
					c-1.7-0.5-2.9-1-3.8-1.5c-0.9-0.4-1.7-1-2.4-1.7c-1.8-1.6-2.7-3.5-2.7-5.6c0-1,0.2-2,0.7-3s1.1-1.8,2-2.5c2-1.6,4.4-2.4,7.2-2.4
					c1.2,0,2.8,0.3,4.7,0.9c0.2,0.1,0.4,0.1,0.6,0.1c0.1,0,0.5-0.1,1-0.3c0.2-0.1,0.4-0.1,0.6-0.1c0.8,0,1.6,0.6,2.5,1.9
					c0.9,1.2,1.3,2.4,1.3,3.6c0,0.7-0.2,1.2-0.6,1.7C78.1,17.1,77.7,17.4,77.1,17.4L77.1,17.4z"/>
			</defs>
			<defs>
				<path id="SVGID_95_" d="M98.1,24.9c-0.3,0.5-0.7,0.7-1.2,0.7h-8.2c-0.4,0-0.5,0.2-0.5,0.5c0,0.8,0.4,1.5,1.2,2.2
					c0.8,0.7,1.7,1,2.6,1c0.6,0,1.2-0.1,1.8-0.3c0.7-0.2,1.2-0.5,1.7-0.8c0.4-0.3,0.7-0.4,0.9-0.4c0.3,0,0.6,0.2,0.9,0.6
					s0.4,0.8,0.4,1.2c0,0.8-0.5,1.7-1.6,2.4c-1.8,1.4-4,2.1-6.4,2.1s-4.5-0.7-6.1-2.1c-0.8-0.7-1.5-1.6-2-2.6c-0.7-1.3-1-2.7-1-4.2
					c0-2,0.6-3.7,1.8-5.3c1-1.4,2.3-2.4,3.9-3c1.2-0.5,2.5-0.8,3.8-0.8c2.2,0,4.1,0.6,5.6,1.9c0.8,0.6,1.4,1.4,1.9,2.3
					c0.5,1,0.8,1.9,0.8,2.9C98.6,23.8,98.4,24.4,98.1,24.9L98.1,24.9z"/>
			</defs>
			<defs>
				<path id="SVGID_96_" d="M91.5,19.8c-0.4-0.4-0.8-0.6-1.4-0.6s-1.2,0.3-1.5,0.8s-0.5,1-0.5,1.5c0,0.4,0.1,0.6,0.3,0.7
					s0.5,0.2,0.9,0.2H91c0.7,0,1.1-0.3,1.1-1C92.1,20.7,91.9,20.2,91.5,19.8L91.5,19.8z"/>
			</defs>
			<defs>
				<path id="SVGID_97_" d="M117,24.9c-0.3,0.5-0.7,0.7-1.2,0.7h-8.2c-0.4,0-0.5,0.2-0.5,0.5c0,0.8,0.4,1.5,1.2,2.2
					c0.8,0.7,1.7,1,2.6,1c0.6,0,1.2-0.1,1.8-0.3c0.7-0.2,1.2-0.5,1.7-0.8c0.4-0.3,0.7-0.4,0.9-0.4c0.3,0,0.6,0.2,0.9,0.6
					s0.4,0.8,0.4,1.2c0,0.8-0.5,1.7-1.6,2.4c-1.8,1.4-4,2.1-6.4,2.1s-4.5-0.7-6.1-2.1c-0.8-0.7-1.5-1.6-2-2.6c-0.7-1.3-1-2.7-1-4.2
					c0-2,0.6-3.7,1.8-5.3c1-1.4,2.3-2.4,3.9-3c1.2-0.5,2.5-0.8,3.8-0.8c2.2,0,4.1,0.6,5.6,1.9c0.8,0.6,1.4,1.4,1.9,2.3
					c0.5,1,0.8,1.9,0.8,2.9C117.4,23.8,117.3,24.4,117,24.9L117,24.9z"/>
			</defs>
			<clipPath id="SVGID_98_">
				<use xlink:href="#SVGID_94_"  style="overflow:visible;"/>
			</clipPath>
			<clipPath id="SVGID_99_" class="st31">
				<use xlink:href="#SVGID_95_"  style="overflow:visible;"/>
			</clipPath>
			<clipPath id="SVGID_100_" class="st32">
				<use xlink:href="#SVGID_96_"  style="overflow:visible;"/>
			</clipPath>
			<clipPath id="SVGID_101_" class="st33">
				<use xlink:href="#SVGID_97_"  style="overflow:visible;"/>
			</clipPath>
		</g>
		<g>
			<defs>
				<path id="SVGID_102_" d="M77.1,17.4c-0.5,0-0.8-0.1-1.1-0.3s-0.9-0.7-1.9-1.7c-1.4-1.3-2.8-2-4.1-2c-0.6,0-1.2,0.2-1.6,0.5
					s-0.6,0.7-0.6,1.3c0,1,0.9,1.8,2.7,2.3c2.4,0.7,3.9,1.2,4.6,1.6c3,1.5,4.4,3.6,4.4,6.4c0,2.5-1,4.5-3,6.1
					c-2.1,1.6-4.7,2.4-8.1,2.4c-1.5,0-3-0.2-4.7-0.5c-1.6-0.4-2.8-0.8-3.6-1.3c-0.6-0.4-1.1-1.2-1.5-2.5s-0.7-2.5-0.7-3.7
					c0-0.6,0.1-1,0.3-1.3c0.3-0.4,0.7-0.6,1.1-0.6c0.4,0,0.9,0.2,1.3,0.7c0.2,0.3,0.8,1.1,1.7,2.5c0.4,0.7,1.1,1.2,2,1.6
					c0.9,0.4,1.9,0.7,2.9,0.7c0.9,0,1.5-0.2,2.1-0.5c0.5-0.3,0.8-0.7,0.8-1.2s-0.2-0.9-0.6-1.2c-0.4-0.3-1.1-0.7-2-1
					c-1.7-0.5-2.9-1-3.8-1.5c-0.9-0.4-1.7-1-2.4-1.7c-1.8-1.6-2.7-3.5-2.7-5.6c0-1,0.2-2,0.7-3s1.1-1.8,2-2.5c2-1.6,4.4-2.4,7.2-2.4
					c1.2,0,2.8,0.3,4.7,0.9c0.2,0.1,0.4,0.1,0.6,0.1c0.1,0,0.5-0.1,1-0.3c0.2-0.1,0.4-0.1,0.6-0.1c0.8,0,1.6,0.6,2.5,1.9
					c0.9,1.2,1.3,2.4,1.3,3.6c0,0.7-0.2,1.2-0.6,1.7C78.1,17.1,77.7,17.4,77.1,17.4L77.1,17.4z"/>
			</defs>
			<defs>
				<path id="SVGID_103_" d="M98.1,24.9c-0.3,0.5-0.7,0.7-1.2,0.7h-8.2c-0.4,0-0.5,0.2-0.5,0.5c0,0.8,0.4,1.5,1.2,2.2
					c0.8,0.7,1.7,1,2.6,1c0.6,0,1.2-0.1,1.8-0.3c0.7-0.2,1.2-0.5,1.7-0.8c0.4-0.3,0.7-0.4,0.9-0.4c0.3,0,0.6,0.2,0.9,0.6
					s0.4,0.8,0.4,1.2c0,0.8-0.5,1.7-1.6,2.4c-1.8,1.4-4,2.1-6.4,2.1s-4.5-0.7-6.1-2.1c-0.8-0.7-1.5-1.6-2-2.6c-0.7-1.3-1-2.7-1-4.2
					c0-2,0.6-3.7,1.8-5.3c1-1.4,2.3-2.4,3.9-3c1.2-0.5,2.5-0.8,3.8-0.8c2.2,0,4.1,0.6,5.6,1.9c0.8,0.6,1.4,1.4,1.9,2.3
					c0.5,1,0.8,1.9,0.8,2.9C98.6,23.8,98.4,24.4,98.1,24.9L98.1,24.9z"/>
			</defs>
			<defs>
				<path id="SVGID_104_" d="M91.5,19.8c-0.4-0.4-0.8-0.6-1.4-0.6s-1.2,0.3-1.5,0.8s-0.5,1-0.5,1.5c0,0.4,0.1,0.6,0.3,0.7
					s0.5,0.2,0.9,0.2H91c0.7,0,1.1-0.3,1.1-1C92.1,20.7,91.9,20.2,91.5,19.8L91.5,19.8z"/>
			</defs>
			<defs>
				<path id="SVGID_105_" d="M117,24.9c-0.3,0.5-0.7,0.7-1.2,0.7h-8.2c-0.4,0-0.5,0.2-0.5,0.5c0,0.8,0.4,1.5,1.2,2.2
					c0.8,0.7,1.7,1,2.6,1c0.6,0,1.2-0.1,1.8-0.3c0.7-0.2,1.2-0.5,1.7-0.8c0.4-0.3,0.7-0.4,0.9-0.4c0.3,0,0.6,0.2,0.9,0.6
					s0.4,0.8,0.4,1.2c0,0.8-0.5,1.7-1.6,2.4c-1.8,1.4-4,2.1-6.4,2.1s-4.5-0.7-6.1-2.1c-0.8-0.7-1.5-1.6-2-2.6c-0.7-1.3-1-2.7-1-4.2
					c0-2,0.6-3.7,1.8-5.3c1-1.4,2.3-2.4,3.9-3c1.2-0.5,2.5-0.8,3.8-0.8c2.2,0,4.1,0.6,5.6,1.9c0.8,0.6,1.4,1.4,1.9,2.3
					c0.5,1,0.8,1.9,0.8,2.9C117.4,23.8,117.3,24.4,117,24.9L117,24.9z"/>
			</defs>
			<defs>
				<path id="SVGID_106_" d="M110.4,19.8c-0.4-0.4-0.8-0.6-1.4-0.6s-1.2,0.3-1.5,0.8s-0.5,1-0.5,1.5c0,0.4,0.1,0.6,0.3,0.7
					c0.2,0.1,0.5,0.2,0.9,0.2h1.8c0.7,0,1.1-0.3,1.1-1C110.9,20.7,110.7,20.2,110.4,19.8L110.4,19.8z"/>
			</defs>
			<clipPath id="SVGID_107_">
				<use xlink:href="#SVGID_102_"  style="overflow:visible;"/>
			</clipPath>
			<clipPath id="SVGID_108_" class="st34">
				<use xlink:href="#SVGID_103_"  style="overflow:visible;"/>
			</clipPath>
			<clipPath id="SVGID_109_" class="st35">
				<use xlink:href="#SVGID_104_"  style="overflow:visible;"/>
			</clipPath>
			<clipPath id="SVGID_110_" class="st36">
				<use xlink:href="#SVGID_105_"  style="overflow:visible;"/>
			</clipPath>
			<clipPath id="SVGID_111_" class="st37">
				<use xlink:href="#SVGID_106_"  style="overflow:visible;"/>
			</clipPath>
		</g>
		<g>
			<defs>
				<path id="SVGID_112_" d="M77.1,17.4c-0.5,0-0.8-0.1-1.1-0.3s-0.9-0.7-1.9-1.7c-1.4-1.3-2.8-2-4.1-2c-0.6,0-1.2,0.2-1.6,0.5
					s-0.6,0.7-0.6,1.3c0,1,0.9,1.8,2.7,2.3c2.4,0.7,3.9,1.2,4.6,1.6c3,1.5,4.4,3.6,4.4,6.4c0,2.5-1,4.5-3,6.1
					c-2.1,1.6-4.7,2.4-8.1,2.4c-1.5,0-3-0.2-4.7-0.5c-1.6-0.4-2.8-0.8-3.6-1.3c-0.6-0.4-1.1-1.2-1.5-2.5s-0.7-2.5-0.7-3.7
					c0-0.6,0.1-1,0.3-1.3c0.3-0.4,0.7-0.6,1.1-0.6c0.4,0,0.9,0.2,1.3,0.7c0.2,0.3,0.8,1.1,1.7,2.5c0.4,0.7,1.1,1.2,2,1.6
					c0.9,0.4,1.9,0.7,2.9,0.7c0.9,0,1.5-0.2,2.1-0.5c0.5-0.3,0.8-0.7,0.8-1.2s-0.2-0.9-0.6-1.2c-0.4-0.3-1.1-0.7-2-1
					c-1.7-0.5-2.9-1-3.8-1.5c-0.9-0.4-1.7-1-2.4-1.7c-1.8-1.6-2.7-3.5-2.7-5.6c0-1,0.2-2,0.7-3s1.1-1.8,2-2.5c2-1.6,4.4-2.4,7.2-2.4
					c1.2,0,2.8,0.3,4.7,0.9c0.2,0.1,0.4,0.1,0.6,0.1c0.1,0,0.5-0.1,1-0.3c0.2-0.1,0.4-0.1,0.6-0.1c0.8,0,1.6,0.6,2.5,1.9
					c0.9,1.2,1.3,2.4,1.3,3.6c0,0.7-0.2,1.2-0.6,1.7C78.1,17.1,77.7,17.4,77.1,17.4L77.1,17.4z"/>
			</defs>
			<defs>
				<path id="SVGID_113_" d="M98.1,24.9c-0.3,0.5-0.7,0.7-1.2,0.7h-8.2c-0.4,0-0.5,0.2-0.5,0.5c0,0.8,0.4,1.5,1.2,2.2
					c0.8,0.7,1.7,1,2.6,1c0.6,0,1.2-0.1,1.8-0.3c0.7-0.2,1.2-0.5,1.7-0.8c0.4-0.3,0.7-0.4,0.9-0.4c0.3,0,0.6,0.2,0.9,0.6
					s0.4,0.8,0.4,1.2c0,0.8-0.5,1.7-1.6,2.4c-1.8,1.4-4,2.1-6.4,2.1s-4.5-0.7-6.1-2.1c-0.8-0.7-1.5-1.6-2-2.6c-0.7-1.3-1-2.7-1-4.2
					c0-2,0.6-3.7,1.8-5.3c1-1.4,2.3-2.4,3.9-3c1.2-0.5,2.5-0.8,3.8-0.8c2.2,0,4.1,0.6,5.6,1.9c0.8,0.6,1.4,1.4,1.9,2.3
					c0.5,1,0.8,1.9,0.8,2.9C98.6,23.8,98.4,24.4,98.1,24.9L98.1,24.9z"/>
			</defs>
			<defs>
				<path id="SVGID_114_" d="M91.5,19.8c-0.4-0.4-0.8-0.6-1.4-0.6s-1.2,0.3-1.5,0.8s-0.5,1-0.5,1.5c0,0.4,0.1,0.6,0.3,0.7
					s0.5,0.2,0.9,0.2H91c0.7,0,1.1-0.3,1.1-1C92.1,20.7,91.9,20.2,91.5,19.8L91.5,19.8z"/>
			</defs>
			<defs>
				<path id="SVGID_115_" d="M117,24.9c-0.3,0.5-0.7,0.7-1.2,0.7h-8.2c-0.4,0-0.5,0.2-0.5,0.5c0,0.8,0.4,1.5,1.2,2.2
					c0.8,0.7,1.7,1,2.6,1c0.6,0,1.2-0.1,1.8-0.3c0.7-0.2,1.2-0.5,1.7-0.8c0.4-0.3,0.7-0.4,0.9-0.4c0.3,0,0.6,0.2,0.9,0.6
					s0.4,0.8,0.4,1.2c0,0.8-0.5,1.7-1.6,2.4c-1.8,1.4-4,2.1-6.4,2.1s-4.5-0.7-6.1-2.1c-0.8-0.7-1.5-1.6-2-2.6c-0.7-1.3-1-2.7-1-4.2
					c0-2,0.6-3.7,1.8-5.3c1-1.4,2.3-2.4,3.9-3c1.2-0.5,2.5-0.8,3.8-0.8c2.2,0,4.1,0.6,5.6,1.9c0.8,0.6,1.4,1.4,1.9,2.3
					c0.5,1,0.8,1.9,0.8,2.9C117.4,23.8,117.3,24.4,117,24.9L117,24.9z"/>
			</defs>
			<defs>
				<path id="SVGID_116_" d="M110.4,19.8c-0.4-0.4-0.8-0.6-1.4-0.6s-1.2,0.3-1.5,0.8s-0.5,1-0.5,1.5c0,0.4,0.1,0.6,0.3,0.7
					c0.2,0.1,0.5,0.2,0.9,0.2h1.8c0.7,0,1.1-0.3,1.1-1C110.9,20.7,110.7,20.2,110.4,19.8L110.4,19.8z"/>
			</defs>
			<defs>
				<path id="SVGID_117_" d="M137.9,33.2c-1.7,0.4-3.4,0.7-5,0.7c-0.4,0-0.6-0.1-0.7-0.2c-0.1-0.1-0.2-0.4-0.2-0.8
					c-0.1-0.6-0.3-0.9-0.6-0.9c-0.2,0-0.5,0.2-0.9,0.5c-1.2,1-2.5,1.5-3.9,1.5c-1.8,0-3.4-0.7-4.8-2c-0.8-0.8-1.5-1.7-2-2.8
					c-0.7-1.4-1-2.8-1-4.2c0-1.7,0.5-3.2,1.4-4.8c0.8-1.4,2-2.5,3.4-3.3c1.2-0.6,2.4-1,3.6-1c1.3,0,2.5,0.3,3.6,0.9
					c0.2,0.1,0.3,0.1,0.4,0.1c0.4,0,0.6-0.5,0.6-1.5c0-0.4-0.1-0.8-0.3-1s-0.6-0.4-1.1-0.6c-0.7-0.2-1.1-0.6-1.1-1.2
					c0-0.9,0.8-1.5,2.5-2c3-0.8,4.9-1.2,6-1.2c1,0,1.5,0.5,1.5,1.4V27c0,0.9,0,1.5,0.1,1.8s0.3,0.5,0.6,0.8c0.4,0.3,0.7,0.6,0.8,0.8
					c0.1,0.2,0.2,0.5,0.2,0.8C140.7,32,139.7,32.7,137.9,33.2L137.9,33.2z"/>
			</defs>
			<clipPath id="SVGID_118_">
				<use xlink:href="#SVGID_112_"  style="overflow:visible;"/>
			</clipPath>
			<clipPath id="SVGID_119_" class="st38">
				<use xlink:href="#SVGID_113_"  style="overflow:visible;"/>
			</clipPath>
			<clipPath id="SVGID_120_" class="st39">
				<use xlink:href="#SVGID_114_"  style="overflow:visible;"/>
			</clipPath>
			<clipPath id="SVGID_121_" class="st40">
				<use xlink:href="#SVGID_115_"  style="overflow:visible;"/>
			</clipPath>
			<clipPath id="SVGID_122_" class="st41">
				<use xlink:href="#SVGID_116_"  style="overflow:visible;"/>
			</clipPath>
			<clipPath id="SVGID_123_" class="st42">
				<use xlink:href="#SVGID_117_"  style="overflow:visible;"/>
			</clipPath>
		</g>
	</g>
	<g>
		<g>
			<path id="SVGID_40_" class="st43" d="M162,33.2c-1.6,0.4-3.3,0.6-4.9,0.6c-0.4,0-0.6-0.1-0.7-0.2c-0.1-0.1-0.2-0.4-0.2-0.8
				c-0.1-0.6-0.3-0.9-0.6-0.9c-0.2,0-0.5,0.2-0.9,0.5c-1.2,1-2.4,1.4-3.9,1.4c-1.8,0-3.3-0.7-4.7-2c-0.8-0.8-1.5-1.7-2-2.7
				c-0.7-1.3-1-2.7-1-4.1c0-1.6,0.4-3.2,1.3-4.7c0.8-1.4,1.9-2.5,3.3-3.2c1.2-0.6,2.3-0.9,3.5-0.9c1.3,0,2.5,0.3,3.5,0.9
				c0.2,0.1,0.3,0.1,0.4,0.1c0.4,0,0.5-0.5,0.5-1.5c0-0.4-0.1-0.7-0.3-1c-0.2-0.2-0.6-0.4-1.1-0.6c-0.7-0.2-1.1-0.6-1.1-1.2
				c0-0.8,0.8-1.5,2.5-2c2.9-0.8,4.8-1.2,5.8-1.2s1.5,0.5,1.5,1.4v15.7c0,0.9,0,1.5,0.1,1.7c0.1,0.3,0.3,0.5,0.6,0.7
				c0.4,0.3,0.7,0.5,0.8,0.8c0.1,0.2,0.2,0.5,0.2,0.8C164.7,32.1,163.8,32.8,162,33.2L162,33.2z"/>
		</g>
		<g>
			<path id="SVGID_41_" class="st1" d="M155.1,20.8c-0.3-0.5-0.8-0.7-1.3-0.7c-0.7,0-1.3,0.4-1.7,1.2c-0.6,1.1-0.9,2.4-0.9,4.2
				c0,1.6,0.3,2.7,0.8,3.5c0.4,0.6,0.9,0.9,1.6,0.9c0.7,0,1.3-0.4,1.6-1.3s0.5-2.3,0.5-4.2C155.7,22.6,155.5,21.4,155.1,20.8
				L155.1,20.8z"/>
		</g>
		<g>
			<path id="SVGID_42_" class="st43" d="M182.1,31.5c-2.2,1.7-4.6,2.5-7.4,2.5c-2.7,0-4.9-0.8-6.6-2.3c-1.6-1.5-2.4-3.5-2.4-5.9
				c0-2.7,1-4.9,3-6.6c2.1-1.8,4.6-2.7,7.6-2.7c2.1,0,3.9,0.5,5.5,1.6c1.1,0.8,2,1.8,2.7,3c0.7,1.3,1.1,2.7,1.1,4.1
				C185.4,27.6,184.3,29.8,182.1,31.5L182.1,31.5z"/>
		</g>
		<g>
			<path id="SVGID_43_" class="st1" d="M177.4,24.5c-0.3-1.2-0.6-2.2-0.9-3c-0.4-0.8-0.9-1.2-1.6-1.2c-0.5,0-0.9,0.2-1.2,0.6
				s-0.5,0.9-0.5,1.5c0,0.7,0.1,1.6,0.4,2.8c0.3,1.2,0.6,2.2,0.9,3.2c0.3,0.9,0.9,1.4,1.7,1.4c1,0,1.5-0.6,1.5-1.9
				C177.8,26.9,177.6,25.8,177.4,24.5L177.4,24.5z"/>
		</g>
		<g>
			<path id="SVGID_44_" class="st43" d="M207.7,33.4c-0.9,0.3-2.5,0.4-4.8,0.4c-1.6,0-2.7-0.1-3.3-0.4c-0.7-0.3-1-0.8-1-1.4
				c0-0.2,0-0.4,0.1-0.5s0.3-0.4,0.7-0.8c0.5-0.5,0.7-2.1,0.7-4.8c0-1.6-0.2-2.8-0.5-3.5c-0.3-0.6-0.8-0.9-1.6-0.9s-1.3,0.2-1.6,0.7
				s-0.4,1.4-0.4,2.7v3.4c0,0.7,0,1.1,0.1,1.4s0.4,0.7,0.8,1.5c0.1,0.2,0.2,0.4,0.2,0.7c0,0.7-0.5,1.2-1.4,1.5s-2.4,0.5-4.3,0.5
				c-3.1,0-4.7-0.7-4.7-2c0-0.3,0-0.5,0.1-0.6s0.3-0.3,0.7-0.6c0.3-0.2,0.5-0.5,0.6-0.7c0.1-0.3,0.2-1,0.2-2.1
				c0.1-1.3,0.1-2.7,0.1-4.1c0-0.8-0.1-1.3-0.2-1.6c-0.1-0.2-0.5-0.5-1-0.9c-0.5-0.3-0.7-0.7-0.7-1.1c0-0.5,0.2-0.8,0.6-1.1
				s1.2-0.7,2.4-1.1c1.1-0.4,2.1-0.7,3.1-1s1.7-0.4,2.1-0.4c0.3,0,0.6,0.1,0.9,0.4c0.2,0.3,0.3,0.6,0.3,0.9c0,0,0,0.2,0,0.4
				c0,0.1,0,0.2,0,0.2c0,0.6,0.2,0.8,0.7,0.8c0.3,0,0.6-0.2,0.9-0.7c1-1.4,2.4-2.1,4.2-2.1c1.4,0,2.6,0.4,3.7,1.1
				c0.7,0.5,1.2,1.2,1.5,1.9s0.5,1.8,0.5,3.2l0.2,6.1c0,0.5,0.1,0.8,0.2,1c0.1,0.2,0.5,0.6,1,1.3c0.2,0.2,0.3,0.4,0.3,0.8
				C209,32.6,208.6,33.1,207.7,33.4L207.7,33.4z"/>
		</g>
		<g>
			<defs>
				<path id="SVGID_124_" d="M162,33.2c-1.6,0.4-3.3,0.6-4.9,0.6c-0.4,0-0.6-0.1-0.7-0.2c-0.1-0.1-0.2-0.4-0.2-0.8
					c-0.1-0.6-0.3-0.9-0.6-0.9c-0.2,0-0.5,0.2-0.9,0.5c-1.2,1-2.4,1.4-3.9,1.4c-1.8,0-3.3-0.7-4.7-2c-0.8-0.8-1.5-1.7-2-2.7
					c-0.7-1.3-1-2.7-1-4.1c0-1.6,0.4-3.2,1.3-4.7c0.8-1.4,1.9-2.5,3.3-3.2c1.2-0.6,2.3-0.9,3.5-0.9c1.3,0,2.5,0.3,3.5,0.9
					c0.2,0.1,0.3,0.1,0.4,0.1c0.4,0,0.5-0.5,0.5-1.5c0-0.4-0.1-0.7-0.3-1c-0.2-0.2-0.6-0.4-1.1-0.6c-0.7-0.2-1.1-0.6-1.1-1.2
					c0-0.8,0.8-1.5,2.5-2c2.9-0.8,4.8-1.2,5.8-1.2s1.5,0.5,1.5,1.4v15.7c0,0.9,0,1.5,0.1,1.7c0.1,0.3,0.3,0.5,0.6,0.7
					c0.4,0.3,0.7,0.5,0.8,0.8c0.1,0.2,0.2,0.5,0.2,0.8C164.7,32.1,163.8,32.8,162,33.2L162,33.2z"/>
			</defs>
			<clipPath id="SVGID_125_">
				<use xlink:href="#SVGID_124_"  style="overflow:visible;"/>
			</clipPath>
		</g>
		<g>
			<defs>
				<path id="SVGID_126_" d="M162,33.2c-1.6,0.4-3.3,0.6-4.9,0.6c-0.4,0-0.6-0.1-0.7-0.2c-0.1-0.1-0.2-0.4-0.2-0.8
					c-0.1-0.6-0.3-0.9-0.6-0.9c-0.2,0-0.5,0.2-0.9,0.5c-1.2,1-2.4,1.4-3.9,1.4c-1.8,0-3.3-0.7-4.7-2c-0.8-0.8-1.5-1.7-2-2.7
					c-0.7-1.3-1-2.7-1-4.1c0-1.6,0.4-3.2,1.3-4.7c0.8-1.4,1.9-2.5,3.3-3.2c1.2-0.6,2.3-0.9,3.5-0.9c1.3,0,2.5,0.3,3.5,0.9
					c0.2,0.1,0.3,0.1,0.4,0.1c0.4,0,0.5-0.5,0.5-1.5c0-0.4-0.1-0.7-0.3-1c-0.2-0.2-0.6-0.4-1.1-0.6c-0.7-0.2-1.1-0.6-1.1-1.2
					c0-0.8,0.8-1.5,2.5-2c2.9-0.8,4.8-1.2,5.8-1.2s1.5,0.5,1.5,1.4v15.7c0,0.9,0,1.5,0.1,1.7c0.1,0.3,0.3,0.5,0.6,0.7
					c0.4,0.3,0.7,0.5,0.8,0.8c0.1,0.2,0.2,0.5,0.2,0.8C164.7,32.1,163.8,32.8,162,33.2L162,33.2z"/>
			</defs>
			<defs>
				<path id="SVGID_127_" d="M155.1,20.8c-0.3-0.5-0.8-0.7-1.3-0.7c-0.7,0-1.3,0.4-1.7,1.2c-0.6,1.1-0.9,2.4-0.9,4.2
					c0,1.6,0.3,2.7,0.8,3.5c0.4,0.6,0.9,0.9,1.6,0.9c0.7,0,1.3-0.4,1.6-1.3s0.5-2.3,0.5-4.2C155.7,22.6,155.5,21.4,155.1,20.8
					L155.1,20.8z"/>
			</defs>
			<clipPath id="SVGID_128_">
				<use xlink:href="#SVGID_126_"  style="overflow:visible;"/>
			</clipPath>
			<clipPath id="SVGID_129_" class="st44">
				<use xlink:href="#SVGID_127_"  style="overflow:visible;"/>
			</clipPath>
		</g>
		<g>
			<defs>
				<path id="SVGID_130_" d="M162,33.2c-1.6,0.4-3.3,0.6-4.9,0.6c-0.4,0-0.6-0.1-0.7-0.2c-0.1-0.1-0.2-0.4-0.2-0.8
					c-0.1-0.6-0.3-0.9-0.6-0.9c-0.2,0-0.5,0.2-0.9,0.5c-1.2,1-2.4,1.4-3.9,1.4c-1.8,0-3.3-0.7-4.7-2c-0.8-0.8-1.5-1.7-2-2.7
					c-0.7-1.3-1-2.7-1-4.1c0-1.6,0.4-3.2,1.3-4.7c0.8-1.4,1.9-2.5,3.3-3.2c1.2-0.6,2.3-0.9,3.5-0.9c1.3,0,2.5,0.3,3.5,0.9
					c0.2,0.1,0.3,0.1,0.4,0.1c0.4,0,0.5-0.5,0.5-1.5c0-0.4-0.1-0.7-0.3-1c-0.2-0.2-0.6-0.4-1.1-0.6c-0.7-0.2-1.1-0.6-1.1-1.2
					c0-0.8,0.8-1.5,2.5-2c2.9-0.8,4.8-1.2,5.8-1.2s1.5,0.5,1.5,1.4v15.7c0,0.9,0,1.5,0.1,1.7c0.1,0.3,0.3,0.5,0.6,0.7
					c0.4,0.3,0.7,0.5,0.8,0.8c0.1,0.2,0.2,0.5,0.2,0.8C164.7,32.1,163.8,32.8,162,33.2L162,33.2z"/>
			</defs>
			<defs>
				<path id="SVGID_131_" d="M155.1,20.8c-0.3-0.5-0.8-0.7-1.3-0.7c-0.7,0-1.3,0.4-1.7,1.2c-0.6,1.1-0.9,2.4-0.9,4.2
					c0,1.6,0.3,2.7,0.8,3.5c0.4,0.6,0.9,0.9,1.6,0.9c0.7,0,1.3-0.4,1.6-1.3s0.5-2.3,0.5-4.2C155.7,22.6,155.5,21.4,155.1,20.8
					L155.1,20.8z"/>
			</defs>
			<defs>
				<path id="SVGID_132_" d="M182.1,31.5c-2.2,1.7-4.6,2.5-7.4,2.5c-2.7,0-4.9-0.8-6.6-2.3c-1.6-1.5-2.4-3.5-2.4-5.9
					c0-2.7,1-4.9,3-6.6c2.1-1.8,4.6-2.7,7.6-2.7c2.1,0,3.9,0.5,5.5,1.6c1.1,0.8,2,1.8,2.7,3c0.7,1.3,1.1,2.7,1.1,4.1
					C185.4,27.6,184.3,29.8,182.1,31.5L182.1,31.5z"/>
			</defs>
			<clipPath id="SVGID_133_">
				<use xlink:href="#SVGID_130_"  style="overflow:visible;"/>
			</clipPath>
			<clipPath id="SVGID_134_" class="st45">
				<use xlink:href="#SVGID_131_"  style="overflow:visible;"/>
			</clipPath>
			<clipPath id="SVGID_135_" class="st46">
				<use xlink:href="#SVGID_132_"  style="overflow:visible;"/>
			</clipPath>
		</g>
		<g>
			<defs>
				<path id="SVGID_136_" d="M162,33.2c-1.6,0.4-3.3,0.6-4.9,0.6c-0.4,0-0.6-0.1-0.7-0.2c-0.1-0.1-0.2-0.4-0.2-0.8
					c-0.1-0.6-0.3-0.9-0.6-0.9c-0.2,0-0.5,0.2-0.9,0.5c-1.2,1-2.4,1.4-3.9,1.4c-1.8,0-3.3-0.7-4.7-2c-0.8-0.8-1.5-1.7-2-2.7
					c-0.7-1.3-1-2.7-1-4.1c0-1.6,0.4-3.2,1.3-4.7c0.8-1.4,1.9-2.5,3.3-3.2c1.2-0.6,2.3-0.9,3.5-0.9c1.3,0,2.5,0.3,3.5,0.9
					c0.2,0.1,0.3,0.1,0.4,0.1c0.4,0,0.5-0.5,0.5-1.5c0-0.4-0.1-0.7-0.3-1c-0.2-0.2-0.6-0.4-1.1-0.6c-0.7-0.2-1.1-0.6-1.1-1.2
					c0-0.8,0.8-1.5,2.5-2c2.9-0.8,4.8-1.2,5.8-1.2s1.5,0.5,1.5,1.4v15.7c0,0.9,0,1.5,0.1,1.7c0.1,0.3,0.3,0.5,0.6,0.7
					c0.4,0.3,0.7,0.5,0.8,0.8c0.1,0.2,0.2,0.5,0.2,0.8C164.7,32.1,163.8,32.8,162,33.2L162,33.2z"/>
			</defs>
			<defs>
				<path id="SVGID_137_" d="M155.1,20.8c-0.3-0.5-0.8-0.7-1.3-0.7c-0.7,0-1.3,0.4-1.7,1.2c-0.6,1.1-0.9,2.4-0.9,4.2
					c0,1.6,0.3,2.7,0.8,3.5c0.4,0.6,0.9,0.9,1.6,0.9c0.7,0,1.3-0.4,1.6-1.3s0.5-2.3,0.5-4.2C155.7,22.6,155.5,21.4,155.1,20.8
					L155.1,20.8z"/>
			</defs>
			<defs>
				<path id="SVGID_138_" d="M182.1,31.5c-2.2,1.7-4.6,2.5-7.4,2.5c-2.7,0-4.9-0.8-6.6-2.3c-1.6-1.5-2.4-3.5-2.4-5.9
					c0-2.7,1-4.9,3-6.6c2.1-1.8,4.6-2.7,7.6-2.7c2.1,0,3.9,0.5,5.5,1.6c1.1,0.8,2,1.8,2.7,3c0.7,1.3,1.1,2.7,1.1,4.1
					C185.4,27.6,184.3,29.8,182.1,31.5L182.1,31.5z"/>
			</defs>
			<defs>
				<path id="SVGID_139_" d="M177.4,24.5c-0.3-1.2-0.6-2.2-0.9-3c-0.4-0.8-0.9-1.2-1.6-1.2c-0.5,0-0.9,0.2-1.2,0.6s-0.5,0.9-0.5,1.5
					c0,0.7,0.1,1.6,0.4,2.8c0.3,1.2,0.6,2.2,0.9,3.2c0.3,0.9,0.9,1.4,1.7,1.4c1,0,1.5-0.6,1.5-1.9C177.8,26.9,177.6,25.8,177.4,24.5
					L177.4,24.5z"/>
			</defs>
			<clipPath id="SVGID_140_">
				<use xlink:href="#SVGID_136_"  style="overflow:visible;"/>
			</clipPath>
			<clipPath id="SVGID_141_" class="st47">
				<use xlink:href="#SVGID_137_"  style="overflow:visible;"/>
			</clipPath>
			<clipPath id="SVGID_142_" class="st48">
				<use xlink:href="#SVGID_138_"  style="overflow:visible;"/>
			</clipPath>
			<clipPath id="SVGID_143_" class="st49">
				<use xlink:href="#SVGID_139_"  style="overflow:visible;"/>
			</clipPath>
		</g>
	</g>
</g>
</svg>
